# xmcd CD database file
#
# Track frame offsets:
#	150
#	17175
#	33675
#	53475
#	77640
#	94070
#	100667
#	114525
#	135225
#	160206
#	177172
#	193350
#
# Disc length: 2807 seconds
#
# Revision: 0
# Processed by: cddbd v1.5.2PL0 Copyright (c) Steve Scherf et al.
# Submitted via: CDex 1.70beta2
#
DISCID=940af50c
DTITLE=Mark Lane - Lost in Desert
DYEAR=2005
DGENRE=Country
TTITLE0=Look live learn
TTITLE1=The right words
TTITLE2=Here it comes
TTITLE3=1.a.
TTITLE4=Walking
TTITLE5=Lost in the desert
TTITLE6=Altert!
TTITLE7=All night
TTITLE8=My amsterdam
TTITLE9=Strawberries and Champagne
TTITLE10=While oceans sleep
TTITLE11=Lights out
EXTD=YEAR: 2005
EXTT0=
EXTT1=
EXTT2=
EXTT3=
EXTT4=
EXTT5=
EXTT6=
EXTT7=
EXTT8=
EXTT9=
EXTT10=
EXTT11=
PLAYORDER=
